<svg 
 xmlns="http://www.w3.org/2000/svg"
 xmlns:xlink="http://www.w3.org/1999/xlink"
 width="124px" height="99px"
 fill='rgb(50, 168, 160)'>
<path fill-rule="evenodd"  fill="rgb(244, 70, 135)"
 d="M22.743,12.290 L110.588,12.290 C117.767,12.290 123.588,18.111 123.588,25.290 L123.588,85.850 C123.588,93.29 117.767,98.850 110.588,98.850 L22.743,98.850 C15.564,98.850 9.743,93.29 9.743,85.850 L9.743,25.290 C9.743,18.111 15.564,12.290 22.743,12.290 Z"/>
<path fill-rule="evenodd"  fill="rgb(244, 207, 47)"
 d="M13.335,12.290 L101.179,12.290 C108.359,12.290 114.179,18.111 114.179,25.290 L114.179,85.850 C114.179,93.29 108.359,98.850 101.179,98.850 L13.335,98.850 C6.155,98.850 0.335,93.29 0.335,85.850 L0.335,25.290 C0.335,18.111 6.155,12.290 13.335,12.290 Z"/>
<path fill-rule="evenodd"  opacity="0.541" fill="rgb(242, 242, 242)"
 d="M43.144,36.753 L94.891,36.753 C96.190,36.753 97.244,37.806 97.244,39.105 C97.244,40.404 96.190,41.457 94.891,41.457 L43.144,41.457 C41.845,41.457 40.792,40.404 40.792,39.105 C40.792,37.806 41.845,36.753 43.144,36.753 Z"/>
<path fill-rule="evenodd"  fill="rgb(244, 70, 135)"
 d="M16.800,47.102 L94.891,47.102 C96.190,47.102 97.244,48.155 97.244,49.454 C97.244,50.753 96.190,51.806 94.891,51.806 L16.800,51.806 C15.501,51.806 14.448,50.753 14.448,49.454 C14.448,48.155 15.501,47.102 16.800,47.102 Z"/>
<path fill-rule="evenodd"  opacity="0.541" fill="rgb(242, 242, 242)"
 d="M16.338,57.999 L94.661,57.999 C95.952,57.999 97.0,59.47 97.0,60.338 C97.0,61.630 95.952,62.677 94.661,62.677 L16.338,62.677 C15.47,62.677 13.999,61.630 13.999,60.338 C13.999,59.47 15.47,57.999 16.338,57.999 Z"/>
<path fill-rule="evenodd"  opacity="0.541" fill="rgb(242, 242, 242)"
 d="M16.338,68.322 L94.661,68.322 C95.952,68.322 97.0,69.369 97.0,70.661 C97.0,71.952 95.952,73.0 94.661,73.0 L16.338,73.0 C15.47,73.0 13.999,71.952 13.999,70.661 C13.999,69.369 15.47,68.322 16.338,68.322 Z"/>
<path fill-rule="evenodd"  opacity="0.541" fill="rgb(242, 242, 242)"
 d="M16.800,80.32 L38.440,80.32 C39.739,80.32 40.792,81.85 40.792,82.385 C40.792,83.684 39.739,84.737 38.440,84.737 L16.800,84.737 C15.501,84.737 14.448,83.684 14.448,82.385 C14.448,81.85 15.501,80.32 16.800,80.32 Z"/>
<path fill-rule="evenodd"  fill="rgb(242, 242, 242)"
 d="M12.566,12.290 L26.679,12.290 L26.679,14.699 C26.679,18.565 23.545,21.699 19.679,21.699 L19.566,21.699 C15.700,21.699 12.566,18.565 12.566,14.699 L12.566,12.290 Z"/>
<path fill-rule="evenodd"  fill="rgb(242, 242, 242)"
 d="M37.28,12.290 L51.141,12.290 L51.141,14.699 C51.141,18.565 48.7,21.699 44.141,21.699 L44.28,21.699 C40.162,21.699 37.28,18.565 37.28,14.699 L37.28,12.290 Z"/>
<path fill-rule="evenodd"  fill="rgb(242, 242, 242)"
 d="M61.491,12.290 L75.604,12.290 L75.604,14.699 C75.604,18.565 72.470,21.699 68.604,21.699 L68.491,21.699 C64.625,21.699 61.491,18.565 61.491,14.699 L61.491,12.290 Z"/>
<path fill-rule="evenodd"  fill="rgb(242, 242, 242)"
 d="M85.953,12.290 L100.66,12.290 L100.66,14.699 C100.66,18.565 96.932,21.699 93.66,21.699 L92.953,21.699 C89.87,21.699 85.953,18.565 85.953,14.699 L85.953,12.290 Z"/>
<path fill-rule="evenodd"  fill="rgb(244, 70, 135)"
 d="M20.859,0.59 L21.738,0.59 C23.947,0.59 25.738,1.850 25.738,4.59 L25.738,14.876 C25.738,17.85 23.947,18.876 21.738,18.876 L20.859,18.876 C18.649,18.876 16.859,17.85 16.859,14.876 L16.859,4.59 C16.859,1.850 18.649,0.59 20.859,0.59 Z"/>
<path fill-rule="evenodd"  fill="rgb(244, 207, 47)"
 d="M18.448,0.59 L19.327,0.59 C21.536,0.59 23.327,1.850 23.327,4.59 L23.327,14.876 C23.327,17.85 21.536,18.876 19.327,18.876 L18.448,18.876 C16.238,18.876 14.448,17.85 14.448,14.876 L14.448,4.59 C14.448,1.850 16.238,0.59 18.448,0.59 Z"/>
<path fill-rule="evenodd"  fill="rgb(244, 70, 135)"
 d="M44.380,0.59 L45.260,0.59 C47.469,0.59 49.260,1.850 49.260,4.59 L49.260,14.876 C49.260,17.85 47.469,18.876 45.260,18.876 L44.380,18.876 C42.171,18.876 40.380,17.85 40.380,14.876 L40.380,4.59 C40.380,1.850 42.171,0.59 44.380,0.59 Z"/>
<path fill-rule="evenodd"  fill="rgb(244, 207, 47)"
 d="M41.969,0.59 L42.849,0.59 C45.58,0.59 46.849,1.850 46.849,4.59 L46.849,14.876 C46.849,17.85 45.58,18.876 42.849,18.876 L41.969,18.876 C39.760,18.876 37.969,17.85 37.969,14.876 L37.969,4.59 C37.969,1.850 39.760,0.59 41.969,0.59 Z"/>
<path fill-rule="evenodd"  fill="rgb(244, 70, 135)"
 d="M69.783,0.59 L70.663,0.59 C72.872,0.59 74.663,1.850 74.663,4.59 L74.663,14.876 C74.663,17.85 72.872,18.876 70.663,18.876 L69.783,18.876 C67.574,18.876 65.783,17.85 65.783,14.876 L65.783,4.59 C65.783,1.850 67.574,0.59 69.783,0.59 Z"/>
<path fill-rule="evenodd"  fill="rgb(244, 207, 47)"
 d="M67.373,0.59 L68.252,0.59 C70.461,0.59 72.252,1.850 72.252,4.59 L72.252,14.876 C72.252,17.85 70.461,18.876 68.252,18.876 L67.373,18.876 C65.163,18.876 63.373,17.85 63.373,14.876 L63.373,4.59 C63.373,1.850 65.163,0.59 67.373,0.59 Z"/>
<path fill-rule="evenodd"  fill="rgb(244, 70, 135)"
 d="M94.246,0.59 L95.125,0.59 C97.334,0.59 99.125,1.850 99.125,4.59 L99.125,14.876 C99.125,17.85 97.334,18.876 95.125,18.876 L94.246,18.876 C92.37,18.876 90.246,17.85 90.246,14.876 L90.246,4.59 C90.246,1.850 92.37,0.59 94.246,0.59 Z"/>
<path fill-rule="evenodd"  fill="rgb(244, 207, 47)"
 d="M91.835,0.59 L92.714,0.59 C94.923,0.59 96.714,1.850 96.714,4.59 L96.714,14.876 C96.714,17.85 94.923,18.876 92.714,18.876 L91.835,18.876 C89.626,18.876 87.835,17.85 87.835,14.876 L87.835,4.59 C87.835,1.850 89.626,0.59 91.835,0.59 Z"/>
</svg>