<svg 
 xmlns="http://www.w3.org/2000/svg"
 xmlns:xlink="http://www.w3.org/1999/xlink"
 width="114px" height="24px"
 viewBox="0 0 114 24">>>
<path fill-rule="evenodd"  fill="rgb(23, 23, 23)"
 d="M110.378,15.991 C111.110,15.991 111.786,15.758 112.232,15.353 L112.551,15.64 L113.514,17.38 L113.330,17.203 C112.572,17.884 111.419,18.275 110.165,18.276 C107.358,18.276 105.749,16.665 105.748,13.855 L105.747,5.671 L105.747,3.412 L105.747,0.335 L108.281,0.335 L108.281,3.412 L112.532,3.411 L112.533,5.670 L108.281,5.670 L108.282,13.748 C108.283,15.236 108.988,15.991 110.378,15.991 ZM99.131,9.934 C99.130,7.191 97.783,5.741 95.235,5.742 C92.361,5.742 90.645,7.531 90.646,10.527 L90.647,18.278 L88.103,18.278 L88.101,3.476 L90.565,3.476 L90.565,5.408 C91.718,4.85 93.462,3.368 95.582,3.368 C99.396,3.367 101.674,5.752 101.675,9.746 L101.676,18.277 L99.132,18.277 L99.131,9.934 ZM80.744,3.477 L83.287,3.477 L83.289,18.279 L80.746,18.279 L80.744,3.477 ZM66.42,21.132 C60.217,21.132 55.904,16.865 55.903,10.921 C55.903,4.976 60.214,0.746 66.40,0.746 C71.865,0.745 76.140,4.974 76.141,10.918 C76.141,16.863 71.868,21.131 66.42,21.132 ZM71.989,14.195 L71.988,7.681 C71.988,6.931 71.385,6.323 70.640,6.323 L61.403,6.324 C60.658,6.324 60.55,6.932 60.55,7.682 L60.56,14.245 C60.56,14.968 60.638,15.555 61.356,15.555 L70.641,15.553 C71.386,15.553 71.989,14.945 71.989,14.195 ZM44.711,18.405 C42.670,18.405 40.922,17.648 39.694,16.251 L39.695,23.490 L37.151,23.490 L37.148,3.469 L39.612,3.469 L39.612,5.590 C40.837,4.145 42.612,3.361 44.709,3.361 C48.951,3.360 52.30,6.518 52.30,10.869 C52.31,15.235 48.953,18.405 44.711,18.405 ZM44.576,5.681 C41.685,5.682 39.666,7.815 39.666,10.870 C39.667,13.925 41.686,16.58 44.577,16.58 C47.468,16.58 49.487,13.924 49.487,10.869 C49.486,7.863 47.421,5.681 44.576,5.681 ZM30.271,9.930 C30.270,7.187 28.923,5.737 26.375,5.737 C23.501,5.738 21.785,7.526 21.786,10.523 L21.786,18.274 L19.243,18.274 L19.241,3.472 L21.705,3.471 L21.705,5.404 C22.858,4.80 24.602,3.363 26.721,3.363 C30.536,3.363 32.814,5.747 32.814,9.741 L32.815,18.272 L30.272,18.273 L30.271,9.930 ZM5.810,18.164 C3.275,17.590 1.275,15.575 0.704,13.22 C0.668,6.872 3.927,2.246 10.49,3.604 C12.590,4.167 14.597,6.188 15.157,8.748 C16.507,14.915 11.915,19.547 5.810,18.164 ZM7.940,5.686 C5.49,5.686 3.30,7.820 3.30,10.875 C3.31,13.930 5.50,16.63 7.941,16.63 C10.817,16.62 12.824,13.929 12.824,10.874 C12.824,7.819 10.815,5.686 7.940,5.686 Z"/>
</svg>